<svg xmlns="http://www.w3.org/2000/svg" xmlns:xlink="http://www.w3.org/1999/xlink" viewBox="0 0 2696.78 3218.44"><defs><style>.cls-1,.cls-7{fill:none;}.cls-1{stroke:#080405;}.cls-1,.cls-3,.cls-4,.cls-5,.cls-7,.cls-8{stroke-miterlimit:10;}.cls-1,.cls-3,.cls-8{stroke-width:7px;}.cls-2{fill:#030202;}.cls-3,.cls-5{fill:#fec013;}.cls-3,.cls-8{stroke:#231f20;}.cls-4,.cls-5{stroke:#39190f;}.cls-4{stroke-width:6px;fill:url(#linear-gradient);}.cls-5{stroke-width:5px;}.cls-6{fill:url(#linear-gradient-2);}.cls-7{stroke:#fff;stroke-width:12px;}.cls-8{fill:#00aeef;}.cls-9{fill:#231f20;}</style><linearGradient id="linear-gradient" x1="986.61" y1="2124.21" x2="2031.52" y2="2124.21" gradientUnits="userSpaceOnUse"><stop offset="0.04" stop-color="#fec013"/><stop offset="0.21" stop-color="#f5b915"/><stop offset="0.47" stop-color="#dea71b"/><stop offset="0.81" stop-color="#b78925"/><stop offset="1" stop-color="#9e752b"/></linearGradient><linearGradient id="linear-gradient-2" x1="1078.54" y1="2119.7" x2="1980.66" y2="2119.7" gradientUnits="userSpaceOnUse"><stop offset="0.13" stop-color="#be5460"/><stop offset="0.15" stop-color="#b7515c"/><stop offset="0.28" stop-color="#8d3d44"/><stop offset="0.41" stop-color="#6c2d31"/><stop offset="0.53" stop-color="#552224"/><stop offset="0.65" stop-color="#471b1c"/><stop offset="0.75" stop-color="#421919"/></linearGradient></defs><g id="Layer_2" data-name="Layer 2"><g id="Layer_1-2" data-name="Layer 1"><path class="cls-1" d="M1544.08,3.79V1043.37h-85.63l-13.94-117.62-92.66,16.78,16.57,116.2-79,15.35-28.5-115.62-92.18,27.85,35,114.09-79,32.9-48.31-109.66L993,1063.11l52.7,107.47L971,1216.64l-70.27-105.28-79,59.22,72.46,94.31-72.46,57-81.24-85.53-70.27,72.37L758,1394.29l-63.68,63.6-96.61-65.79L540.63,1482l94.42,63.6-48.31,85.54-105.39-57S209.81,1984.27,444,2592.52c0,0-436.22-450.34-289.83-1178.49L44.4,1363.58s0-82.61,42.45-164.49l102.47,60s14.64-68.72,49.77-138.9l-96.61-81.88,70.26-141.83,90.76,80.42,79-133.06L299.1,750.21l95.15-133.05,73.19,98,105.4-114-60-109.67L628.46,386.14l61.48,106.74,125.89-96.5L764.6,285.25l139.06-87.73,39.52,119.9,142-68.72-27.81-119.9,152.24-57L1233,194.6l149.31-40.94L1370.62,30.84S1407.21,14.66,1544.08,3.79Z"/><polygon class="cls-2" points="814.75 857.23 866.35 823.24 858.67 676.29 997 987.73 1049.7 965.79 829.99 463.97 779.62 498.64 803.78 779.37 603.97 665.32 561.15 709.19 823.54 1086.42 871.84 1055.72 681.91 778.78 814.75 857.23"/><path class="cls-2" d="M501.5,915.72c0-2.68-52.93,3.17-56.33,3.83-19,3.69-39.45,10.33-53.16,24.73S376.48,978.8,377,997.92c1.05,42.16,21,79.91,47.19,112,13.56,16.59,28.69,31.78,44.41,46.32a227.43,227.43,0,0,0,126.36,57.68c32.63,3.79,77.56,4.14,102.08-21.63,29.73-31.23,16.37-81.92,2.85-117.2l-46.11,11.33c3.16-.78,12.5,34.95,13,37.72,3.59,20.41-.84,41.32-23.51,46.81-24.55,5.94-53.83-3.55-76.78-12.37a247.55,247.55,0,0,1-58-31.92c-37.34-27.53-71.69-65.61-83.6-111.84-5.91-22.93-3.19-44.52,23.34-50.3,17.32-3.78,36.12-1.27,53.36,1.64Z"/><path class="cls-2" d="M346.33,1246.16c.32-.78-28.22-.37-30.41.15-19.16,4.51-28.48,19.57-27.57,38.88.59,12.59,5.19,26,15.8,32.79,13,8.38,32.79,6,46.57.56,28.82-11.29,53.42-34.57,83.51-42.56,41-10.87,85.78,10.37,92.82,53.88,2.62,16.17.17,32.93-5.58,48.28-15,40.16-61.13,52.86-99.75,39.82l11-30.7c-.35,1,28.85-.08,31-.6,22.55-5.52,30.57-24.4,28.1-46.53-1-9.08-4.69-18.14-11.56-24.16-6.51-5.7-15.39-8.22-24-8.12-11.06.12-21.69,4.12-31.36,9.21-28.34,14.93-59.41,38.79-92.41,40.63-28.6,1.6-58.12-13.58-72-38.84-16.5-29.95-8.62-65.41,12.92-90.21s57.54-23.21,86.95-16.11Z"/><path class="cls-2" d="M1365.3,374.73c-12.57-35.12-40.88-61.3-73-79-50.59-27.85-118.5-20.78-168.69,4l-113.46,56,169.81,560L1234.14,900l-76.85-272c.39,1.38,46.1-12.95,48.73-13.84C1265.39,594,1338.74,560,1362.35,497.12,1376.72,458.82,1379.19,413.53,1365.3,374.73Zm-50.36,88c-8.57,37.8-36.61,63.06-70.54,79.25-8.31,4-104.67,37.68-105.41,35.27,0-.12-60.75-198.85-60.75-198.85,48-20,98.62-50.61,152.52-43.28,29.4,4,58,18.23,73.84,44.12C1319.72,404,1321.23,435,1314.94,462.71Z"/><path class="cls-3" d="M130.88,1568.07C67.85,2206,443.62,2593.93,443.62,2593.93c-162.28-421.46-81.75-747.8-17-908.49L546.09,1732c-6.7-2.61-46,126.43-47.82,133.6-30,117-36.64,239.59-23.47,359.45,17.75,161.42,70.74,320.95,154.63,460.08,38.48,63.81,83.56,123.76,135.08,177.66,93,97.32,205.59,175.68,328.67,230.26a1083.06,1083.06,0,0,0,274.4,80.34c92,14.11,181.27,20.79,274.21,11.29,383.31-39.21,769.47-295.26,899.13-669.43,20.71-59.75,35.87-121.41,48.85-183.24q6.12-29.07,11.52-58.28c-.34,1.83,2.83,7.83,3.32,9.78,3,12,2.92,25.06,2.55,37.33-2.5,81.56-28.87,166.13-60.37,240.94-30.22,71.78-70.76,138.95-117.53,201.14a1269.69,1269.69,0,0,1-106.53,123.53A1151,1151,0,0,1,2191,3002.68c-129.35,97.19-292.72,164.13-451.62,193q-15,2.73-30.18,4.93c-522.34,75.73-1072.28-153-1393.33-568.13-60.51-78.23-115.4-161.27-158.78-250.28-19.88-40.81-33.75-84.22-50.44-126.36C89,2211.31,70.57,2167,58,2120.71c-21.73-79.81-40.2-159.94-47.17-242.51Q3,1785.79,3.54,1692.93q.29-42.18,2.53-84.31c.43-7.81,9.37-84.88,7.19-85.71Z"/><path class="cls-4" d="M2072.32,2103.64c-12.19-6.29-23.88-12.19-35.41-17.53a551.57,551.57,0,0,0-67.86-26.5,490.83,490.83,0,0,0-67.23-16q-13.5-2.22-27-3.66,15.24-12.24,29.46-26.07c8.91-8.64,17.47-17.85,25.67-27.52a374.82,374.82,0,0,0,23.41-30.68c3.67-5.39,7.25-11,10.7-16.61,1.7-2.88,3.41-5.74,5.06-8.67s3.27-5.91,4.86-8.89a317.83,317.83,0,0,0,17-38c2.45-6.7,4.72-13.57,6.68-20.66l1.45-5.33c.47-1.77.88-3.59,1.31-5.42.86-3.64,1.6-7.29,2.28-11,.36-1.86.63-3.77.93-5.64l.43-2.83.34-2.89c.22-1.94.46-3.82.62-5.77s.3-3.91.4-5.87l.12-3c0-1,.08-1.95.07-3,0-2,0-4-.09-6a95.84,95.84,0,0,0-1.2-12.23l-44.16,6.47c-13.55,2.07-26.49,4.16-39,6.61a552.48,552.48,0,0,0-70.49,18.43,490.58,490.58,0,0,0-63.77,26.58q-12.23,6.13-24,12.93,5.13-18.86,8.49-38.4c2.12-12.22,3.62-24.69,4.56-37.33a373.37,373.37,0,0,0,.87-38.56c-.2-6.52-.58-13.12-1.12-19.73-.32-3.33-.62-6.65-1-10s-.84-6.7-1.3-10.05a315.12,315.12,0,0,0-8.64-40.78c-2-6.86-4.15-13.74-6.75-20.63l-2-5.16c-.65-1.71-1.39-3.43-2.13-5.16-1.44-3.45-3-6.83-4.65-10.27-.8-1.71-1.71-3.42-2.57-5.11l-1.32-2.53-1.42-2.55c-1-1.69-1.88-3.36-2.9-5s-2.06-3.34-3.13-5l-1.64-2.45c-.56-.82-1.08-1.62-1.69-2.44-1.2-1.63-2.36-3.23-3.62-4.81a93.06,93.06,0,0,0-8.16-9.19l-31.91,31.16c-9.75,9.64-19,18.93-27.62,28.24a551.26,551.26,0,0,0-46.17,56.31,488.85,488.85,0,0,0-35.93,59q-6,11.57-11.31,23.39-6.73-17.64-15.17-34.84c-5.44-11.15-11.54-22.14-18.19-32.93a375.48,375.48,0,0,0-21.9-31.77c-4-5.16-8.17-10.29-12.48-15.33-2.21-2.51-4.39-5-6.66-7.5s-4.61-4.94-7-7.38a316.32,316.32,0,0,0-30.91-28c-5.6-4.41-11.43-8.71-17.57-12.77l-4.62-3c-1.53-1-3.14-2-4.75-2.93-3.2-2-6.43-3.8-9.79-5.61-1.66-.92-3.4-1.77-5.08-2.64l-2.56-1.28-2.64-1.23c-1.77-.81-3.49-1.63-5.3-2.38s-3.62-1.5-5.46-2.21l-2.77-1c-.93-.34-1.82-.68-2.8-1-1.92-.62-3.8-1.24-5.75-1.78a95.26,95.26,0,0,0-12-2.68l-7.6,43.93c-2.25,13.52-4.28,26.45-5.83,39a550.19,550.19,0,0,0-4.41,72.64,488.38,488.38,0,0,0,5.44,68.81q2,13.52,4.81,26.84-16.34-10.73-33.89-20c-11-5.82-22.36-11.13-34.09-16A376.09,376.09,0,0,0,1264.5,1792c-6.27-1.84-12.66-3.53-19.12-5.08-3.26-.73-6.51-1.48-9.8-2.15s-6.64-1.29-10-1.89a316.73,316.73,0,0,0-41.49-4.5c-7.13-.28-14.37-.33-21.73,0l-5.52.26c-1.83.09-3.7.26-5.57.42-3.73.3-7.43.71-11.22,1.22-1.88.23-3.79.56-5.66.85l-2.82.46-2.86.56c-1.91.39-3.79.73-5.69,1.19s-3.82.91-5.72,1.42l-2.85.79c-1,.27-1.87.52-2.84.85-1.92.62-3.81,1.23-5.7,1.93a93.93,93.93,0,0,0-11.29,4.89l19.72,40c6.14,12.25,12.1,23.91,18.27,35a552,552,0,0,0,39.2,61.35,489.47,489.47,0,0,0,44.9,52.45q9.6,9.75,19.7,18.89-19.53.91-39.19,3.72c-12.29,1.74-24.64,4.14-37,7.13a375.15,375.15,0,0,0-37,11c-6.14,2.19-12.32,4.59-18.44,7.13-3.08,1.32-6.15,2.62-9.2,4s-6.13,2.85-9.18,4.32a316.6,316.6,0,0,0-36.2,20.73c-5.94,4-11.82,8.17-17.59,12.75l-4.31,3.46c-1.43,1.15-2.83,2.38-4.26,3.61-2.84,2.43-5.59,4.94-8.36,7.57-1.38,1.29-2.73,2.68-4.07,4l-2,2-2,2.13c-1.31,1.44-2.63,2.81-3.9,4.3s-2.55,3-3.79,4.51l-1.83,2.31c-.61.78-1.22,1.52-1.81,2.36-1.18,1.63-2.35,3.23-3.47,4.91a94,94,0,0,0-6.25,10.58l39.49,20.77c12.18,6.3,23.86,12.22,35.39,17.58a551.41,551.41,0,0,0,67.82,26.6,490.55,490.55,0,0,0,67.2,16.06q13.5,2.23,27,3.7-15.25,12.23-29.5,26c-8.93,8.62-17.5,17.82-25.72,27.48a370.51,370.51,0,0,0-23.44,30.64c-3.69,5.39-7.27,11-10.73,16.6-1.71,2.88-3.43,5.73-5.07,8.66s-3.28,5.91-4.88,8.88a316.13,316.13,0,0,0-17.08,38c-2.47,6.69-4.75,13.56-6.72,20.64l-1.45,5.33c-.48,1.77-.89,3.6-1.32,5.42-.87,3.65-1.62,7.29-2.3,11-.36,1.86-.63,3.77-.94,5.64l-.43,2.83-.35,2.89c-.22,1.93-.47,3.82-.62,5.76s-.31,3.91-.41,5.88l-.12,3c0,1-.09,1.94-.08,3,0,2,0,4,.08,6a95.93,95.93,0,0,0,1.18,12.23l44.17-6.4c13.56-2.05,26.5-4.13,39-6.56a553.44,553.44,0,0,0,70.52-18.32,490,490,0,0,0,63.8-26.49q12.24-6.12,24.06-12.89-5.15,18.84-8.54,38.38c-2.14,12.22-3.66,24.69-4.62,37.33a373.19,373.19,0,0,0-.92,38.56c.19,6.52.56,13.12,1.09,19.72.31,3.34.61,6.65,1,10s.83,6.7,1.29,10a316.68,316.68,0,0,0,8.57,40.8c2,6.86,4.14,13.75,6.72,20.64l2,5.16c.65,1.71,1.39,3.43,2.12,5.16,1.44,3.46,3,6.84,4.63,10.28.81,1.71,1.72,3.42,2.57,5.11l1.31,2.54,1.42,2.55c1,1.69,1.87,3.36,2.89,5s2.06,3.34,3.13,5l1.64,2.46c.55.81,1.07,1.62,1.68,2.44,1.19,1.63,2.35,3.23,3.61,4.82a96.73,96.73,0,0,0,8.15,9.2l32-31.12c9.76-9.63,19-18.9,27.66-28.2a550.6,550.6,0,0,0,46.25-56.24,488.29,488.29,0,0,0,36-58.9q6.3-12.14,11.87-24.55,6.93,18.26,15.69,36.06c5.46,11.14,11.57,22.12,18.23,32.9a374,374,0,0,0,22,31.73c4,5.17,8.19,10.28,12.5,15.32,2.22,2.51,4.41,5,6.68,7.49s4.62,4.93,7,7.37a316.32,316.32,0,0,0,30.95,28c5.61,4.41,11.44,8.69,17.58,12.75l4.63,3c1.54,1,3.15,2,4.76,2.93,3.2,1.95,6.43,3.78,9.8,5.59,1.65.91,3.39,1.76,5.08,2.63l2.56,1.28,2.64,1.23c1.78.8,3.5,1.62,5.3,2.37s3.63,1.49,5.47,2.19l2.77,1c.93.34,1.83.68,2.8,1,1.92.62,3.81,1.23,5.76,1.78a95.24,95.24,0,0,0,12,2.65l7.53-43.94c2.23-13.52,4.25-26.45,5.78-39.06a551.36,551.36,0,0,0,4.3-72.65,488.05,488.05,0,0,0-5.54-68.79q-2.05-13.51-4.86-26.84,16.36,10.71,33.92,19.95,16.47,8.72,34.13,15.91a372.5,372.5,0,0,0,36.43,12.77c6.27,1.83,12.67,3.51,19.12,5,3.27.73,6.52,1.47,9.82,2.13s6.64,1.28,10,1.88a317.14,317.14,0,0,0,41.5,4.44c7.13.27,14.37.31,21.73,0l5.52-.27c1.83-.1,3.69-.27,5.57-.43,3.73-.3,7.43-.72,11.22-1.23,1.87-.24,3.78-.57,5.66-.86l2.82-.47,2.86-.56c1.91-.39,3.78-.74,5.68-1.2s3.82-.91,5.72-1.43l2.85-.8c.94-.27,1.87-.51,2.84-.84,1.92-.63,3.8-1.24,5.7-1.94a95.46,95.46,0,0,0,11.27-4.91l-19.77-40c-6.16-12.23-12.14-23.88-18.32-35a553,553,0,0,0-39.29-61.3,492.52,492.52,0,0,0-45-52.39q-9.62-9.72-19.73-18.85,19.53-.95,39.18-3.78c12.29-1.76,24.64-4.18,37-7.18a374.48,374.48,0,0,0,37-11.07c6.15-2.2,12.32-4.6,18.44-7.15,3.08-1.33,6.14-2.64,9.19-4s6.13-2.86,9.17-4.33A316.11,316.11,0,0,0,2048.3,2189c5.93-4,11.8-8.19,17.56-12.77l4.31-3.47c1.42-1.15,2.83-2.38,4.25-3.61,2.84-2.44,5.59-5,8.35-7.59,1.38-1.29,2.73-2.68,4.07-4l2-2,2-2.14c1.32-1.44,2.62-2.82,3.89-4.3s2.55-3,3.79-4.52l1.83-2.32c.61-.77,1.21-1.52,1.8-2.35,1.18-1.64,2.35-3.24,3.47-4.92a95.61,95.61,0,0,0,6.23-10.59Z"/><path class="cls-5" d="M1549.22,1623.07l1.06,1,1,1,2,2c1.29,1.3,2.56,2.61,3.77,3.91,2.46,2.61,4.76,5.22,7,7.84,4.5,5.22,8.62,10.44,12.57,15.66a349.73,349.73,0,0,1,20.82,31.33,359.52,359.52,0,0,1,29.12,62.66,369.56,369.56,0,0,1,16,62.66,388.19,388.19,0,0,1,5.14,62.65,382.44,382.44,0,0,1-5,62.66q-2.52,15.66-6.5,31.33c-2.62,10.44-5.81,20.89-9.45,31.33a356.55,356.55,0,0,1-29.17,62.66,348.41,348.41,0,0,1-20.92,31.33c-4,5.22-8.1,10.44-12.62,15.66-2.27,2.61-4.59,5.22-7.07,7.83-1.21,1.31-2.49,2.61-3.78,3.92l-2,2-1,1-1.07,1-1.06-1-1-1-2-2c-1.29-1.31-2.57-2.61-3.78-3.92-2.48-2.61-4.8-5.22-7.07-7.83-4.52-5.22-8.67-10.44-12.62-15.66a348.41,348.41,0,0,1-20.92-31.33,356.55,356.55,0,0,1-29.17-62.66c-3.64-10.44-6.83-20.89-9.45-31.33s-4.82-20.89-6.5-31.33a382.44,382.44,0,0,1-5-62.66,388.19,388.19,0,0,1,5.14-62.65,369.56,369.56,0,0,1,16.05-62.66,358.79,358.79,0,0,1,29.12-62.66,349.73,349.73,0,0,1,20.82-31.33c4-5.22,8.07-10.44,12.56-15.66,2.27-2.62,4.57-5.23,7-7.84,1.21-1.3,2.48-2.61,3.77-3.91l2-2,1-1Z"/><path class="cls-5" d="M1844.2,1718.8l.27,1.41.24,1.38.46,2.76c.27,1.81.53,3.61.74,5.38.45,3.55.78,7,1.07,10.46.56,6.86.83,13.51,1,20a349.55,349.55,0,0,1-1.59,37.57A359.06,359.06,0,0,1,1833,1865.6a370.29,370.29,0,0,1-23.89,60.11,388,388,0,0,1-32.71,53.71,383.07,383.07,0,0,1-40.88,47.79q-11.25,11.19-23.69,21.53t-26.09,19.79a356.82,356.82,0,0,1-60.47,33.57,347.86,347.86,0,0,1-35.35,13.06c-6.28,1.9-12.71,3.69-19.43,5.27-3.38.77-6.79,1.52-10.33,2.18-1.75.34-3.55.65-5.37.95l-2.77.4-1.39.21-1.44.16-.28-1.41-.23-1.38-.48-2.76c-.27-1.82-.54-3.62-.75-5.4-.47-3.56-.81-7-1.11-10.48-.58-6.88-.87-13.54-1-20.09a345.64,345.64,0,0,1,1.52-37.62,356,356,0,0,1,13.27-67.82c3.2-10.59,6.77-20.9,10.79-30.89s8.39-19.73,13.17-29.17a383.66,383.66,0,0,1,32.87-53.59,389,389,0,0,1,41-47.68,370.74,370.74,0,0,1,49.86-41.26,359.45,359.45,0,0,1,60.43-33.6,353.19,353.19,0,0,1,35.28-13.12c6.27-1.91,12.68-3.71,19.38-5.3,3.37-.78,6.77-1.54,10.3-2.21,1.75-.34,3.54-.65,5.35-1l2.76-.42,1.39-.2Z"/><path class="cls-5" d="M2026.5,1969.44l-.61,1.3-.62,1.25-1.25,2.5c-.84,1.62-1.69,3.23-2.56,4.79-1.73,3.14-3.5,6.14-5.29,9.09-3.58,5.88-7.28,11.42-11,16.78a349.8,349.8,0,0,1-23.4,29.46,358.54,358.54,0,0,1-50.66,47,370.84,370.84,0,0,1-54.7,34.62,389,389,0,0,1-58.07,24.24,383,383,0,0,1-61.19,14.66q-15.69,2.45-31.84,3.51c-10.75.73-21.68.94-32.75.7a357.42,357.42,0,0,1-68.67-8.35,344.24,344.24,0,0,1-36.29-10.19c-6.2-2.14-12.45-4.47-18.82-7.15-3.19-1.35-6.39-2.75-9.64-4.29-1.62-.75-3.26-1.56-4.9-2.39l-2.48-1.3-1.25-.65-1.26-.71.61-1.31.62-1.25,1.24-2.51c.85-1.63,1.7-3.25,2.56-4.81,1.72-3.16,3.49-6.17,5.28-9.14,3.57-5.9,7.26-11.45,11-16.83a347.64,347.64,0,0,1,23.37-29.55,357.15,357.15,0,0,1,50.64-47.07c8.82-6.69,17.78-12.94,26.91-18.66s18.4-11,27.82-15.86a383.16,383.16,0,0,1,58.13-24.06,389.34,389.34,0,0,1,61.25-14.48,370.45,370.45,0,0,1,64.62-4.11,360.1,360.1,0,0,1,68.66,8.29,350.24,350.24,0,0,1,36.26,10.11c6.19,2.13,12.44,4.44,18.8,7.09,3.18,1.34,6.38,2.72,9.63,4.26,1.62.74,3.25,1.55,4.89,2.36l2.48,1.29,1.24.65Z"/><path class="cls-5" d="M2026.5,2279.23l-1.26.7-1.24.65-2.48,1.29c-1.64.81-3.28,1.62-4.89,2.36-3.25,1.54-6.45,2.92-9.63,4.26-6.36,2.65-12.61,5-18.8,7.09a350.24,350.24,0,0,1-36.26,10.11,360.1,360.1,0,0,1-68.66,8.29,370.45,370.45,0,0,1-64.62-4.11,389.34,389.34,0,0,1-61.25-14.48,383.16,383.16,0,0,1-58.13-24.06q-14.13-7.23-27.82-15.86c-9.13-5.72-18.09-12-26.91-18.66a357.15,357.15,0,0,1-50.64-47.07,347.64,347.64,0,0,1-23.37-29.55c-3.75-5.38-7.44-10.93-11-16.83-1.79-3-3.56-6-5.28-9.14-.86-1.56-1.71-3.18-2.56-4.81l-1.24-2.51-.62-1.26-.61-1.31,1.26-.7,1.25-.65,2.48-1.3c1.64-.83,3.28-1.64,4.9-2.39,3.25-1.54,6.45-2.94,9.64-4.3,6.37-2.67,12.62-5,18.82-7.14a344.24,344.24,0,0,1,36.29-10.19,357.42,357.42,0,0,1,68.67-8.35c11.07-.24,22,0,32.75.7s21.38,1.87,31.84,3.5a383.07,383.07,0,0,1,61.19,14.67,389,389,0,0,1,58.07,24.24,370.84,370.84,0,0,1,54.7,34.62,358.54,358.54,0,0,1,50.66,47,349.8,349.8,0,0,1,23.4,29.46c3.75,5.36,7.45,10.9,11,16.78,1.79,2.95,3.56,5.95,5.29,9.09.86,1.56,1.72,3.17,2.56,4.79l1.25,2.5.62,1.25Z"/><path class="cls-5" d="M1844.2,2529.87l-1.43-.18-1.39-.2-2.76-.42c-1.81-.3-3.61-.61-5.35-1-3.53-.67-6.93-1.43-10.3-2.21-6.7-1.59-13.12-3.39-19.38-5.3a353.19,353.19,0,0,1-35.28-13.12,360.16,360.16,0,0,1-60.43-33.6,370.74,370.74,0,0,1-49.86-41.26,389,389,0,0,1-41-47.68,383.66,383.66,0,0,1-32.87-53.59q-7.17-14.16-13.17-29.17c-4-10-7.59-20.3-10.79-30.89a356,356,0,0,1-13.27-67.82,345.72,345.72,0,0,1-1.52-37.63c.13-6.54.42-13.2,1-20.08.3-3.45.64-6.92,1.11-10.48.21-1.78.48-3.58.75-5.4l.48-2.76.23-1.38.28-1.42,1.44.17,1.39.21,2.77.4c1.82.3,3.62.61,5.37.95,3.54.66,7,1.41,10.33,2.18,6.72,1.58,13.15,3.37,19.43,5.27a347.86,347.86,0,0,1,35.35,13.06,356.82,356.82,0,0,1,60.47,33.57q13.65,9.46,26.09,19.79t23.69,21.53a383.07,383.07,0,0,1,40.88,47.79,388,388,0,0,1,32.71,53.71,370.29,370.29,0,0,1,23.89,60.11,359.06,359.06,0,0,1,13.31,67.79,349.55,349.55,0,0,1,1.59,37.57c-.12,6.54-.39,13.19-1,20.05-.29,3.44-.62,6.91-1.07,10.46-.21,1.77-.47,3.57-.74,5.38l-.46,2.76-.24,1.37Z"/><path class="cls-5" d="M1549.22,2625.6l-1-1-1-1-2-2c-1.29-1.3-2.56-2.61-3.77-3.91-2.46-2.61-4.76-5.23-7-7.84-4.49-5.22-8.61-10.44-12.56-15.66a349.73,349.73,0,0,1-20.82-31.33,358.79,358.79,0,0,1-29.12-62.66,369.56,369.56,0,0,1-16.05-62.66,388.19,388.19,0,0,1-5.14-62.65,382.36,382.36,0,0,1,5-62.66q2.52-15.66,6.5-31.33c2.62-10.44,5.81-20.89,9.45-31.33a356.22,356.22,0,0,1,29.17-62.66,348.41,348.41,0,0,1,20.92-31.33c4-5.22,8.1-10.44,12.62-15.66,2.27-2.61,4.59-5.22,7.07-7.83,1.21-1.31,2.49-2.61,3.78-3.92l2-2,1-1,1.06-1,1.07,1,1,1,2,2c1.29,1.31,2.57,2.61,3.78,3.92,2.48,2.61,4.8,5.22,7.07,7.83,4.52,5.22,8.67,10.44,12.62,15.66a348.41,348.41,0,0,1,20.92,31.33,356.22,356.22,0,0,1,29.17,62.66c3.64,10.44,6.83,20.89,9.45,31.33s4.82,20.89,6.5,31.33a382.36,382.36,0,0,1,5,62.66,388.19,388.19,0,0,1-5.14,62.65,369.56,369.56,0,0,1-16,62.66,359.52,359.52,0,0,1-29.12,62.66,347.74,347.74,0,0,1-20.83,31.33c-3.94,5.22-8.07,10.44-12.56,15.66-2.26,2.61-4.56,5.23-7,7.84-1.21,1.3-2.49,2.61-3.77,3.91l-2,2-1,1Z"/><path class="cls-5" d="M1254.25,2529.86l-.27-1.41-.24-1.37-.46-2.76c-.27-1.81-.53-3.61-.74-5.38-.45-3.55-.78-7-1.08-10.46-.56-6.86-.82-13.51-.94-20.05a349.55,349.55,0,0,1,1.59-37.57,359.06,359.06,0,0,1,13.31-67.79,370.29,370.29,0,0,1,23.89-60.11,388,388,0,0,1,32.71-53.71,383.83,383.83,0,0,1,40.87-47.79q11.27-11.19,23.7-21.53c8.27-6.91,17-13.48,26.09-19.79a356.82,356.82,0,0,1,60.47-33.57,347.86,347.86,0,0,1,35.35-13.06c6.28-1.9,12.7-3.69,19.43-5.27,3.38-.77,6.79-1.52,10.33-2.18,1.75-.34,3.55-.65,5.37-.95l2.77-.4,1.39-.21,1.43-.17.29,1.42.23,1.38.47,2.76c.28,1.82.55,3.62.76,5.4.47,3.56.81,7,1.11,10.48.58,6.88.87,13.54,1,20.08a345.72,345.72,0,0,1-1.52,37.63,356,356,0,0,1-13.27,67.82c-3.2,10.59-6.77,20.9-10.79,30.89s-8.39,19.73-13.17,29.17a383.66,383.66,0,0,1-32.87,53.59,389,389,0,0,1-41,47.68,370.74,370.74,0,0,1-49.86,41.26,360.16,360.16,0,0,1-60.43,33.6,354.12,354.12,0,0,1-35.28,13.12c-6.27,1.91-12.68,3.71-19.38,5.29-3.37.79-6.77,1.55-10.3,2.21-1.75.35-3.54.66-5.35,1l-2.76.42-1.39.2Z"/><path class="cls-5" d="M1072,2279.23l.61-1.3.62-1.25,1.25-2.5c.84-1.62,1.69-3.24,2.56-4.79,1.73-3.14,3.5-6.14,5.29-9.1,3.58-5.87,7.28-11.41,11-16.77a349.8,349.8,0,0,1,23.4-29.46,359.22,359.22,0,0,1,50.66-47,370.77,370.77,0,0,1,54.7-34.61,389,389,0,0,1,58.07-24.24,383.07,383.07,0,0,1,61.19-14.67q15.69-2.45,31.84-3.5c10.75-.73,21.68-.94,32.75-.7a357.42,357.42,0,0,1,68.67,8.35,344.91,344.91,0,0,1,36.29,10.19c6.2,2.14,12.45,4.47,18.82,7.14,3.19,1.36,6.39,2.75,9.64,4.3,1.62.75,3.26,1.56,4.9,2.39l2.48,1.3,1.24.65,1.26.7-.6,1.31-.62,1.26-1.25,2.51c-.84,1.63-1.69,3.25-2.55,4.81-1.73,3.16-3.49,6.17-5.28,9.14-3.57,5.9-7.26,11.45-11,16.83a349.65,349.65,0,0,1-23.37,29.55,357.69,357.69,0,0,1-50.64,47.07c-8.82,6.69-17.78,12.94-26.91,18.66s-18.4,11-27.82,15.86a383.16,383.16,0,0,1-58.13,24.06,389.86,389.86,0,0,1-61.25,14.48,370.45,370.45,0,0,1-64.62,4.11,359.33,359.33,0,0,1-68.66-8.3,347.66,347.66,0,0,1-36.26-10.1c-6.19-2.13-12.44-4.44-18.8-7.09-3.18-1.34-6.38-2.73-9.63-4.26-1.62-.74-3.25-1.55-4.89-2.36l-2.48-1.29-1.24-.65Z"/><path class="cls-5" d="M1072,1969.43l1.26-.69,1.24-.65,2.48-1.29c1.64-.82,3.27-1.62,4.89-2.37,3.25-1.53,6.45-2.91,9.63-4.25,6.36-2.65,12.61-5,18.8-7.09a350.24,350.24,0,0,1,36.26-10.11,360.1,360.1,0,0,1,68.66-8.29,370.45,370.45,0,0,1,64.62,4.11,388.23,388.23,0,0,1,61.25,14.48,383.16,383.16,0,0,1,58.13,24.06q14.13,7.23,27.82,15.86c9.13,5.72,18.09,12,26.91,18.66a357.15,357.15,0,0,1,50.64,47.07,349.65,349.65,0,0,1,23.37,29.55c3.75,5.38,7.44,10.93,11,16.83,1.79,3,3.55,6,5.28,9.14.86,1.56,1.71,3.18,2.55,4.81l1.25,2.51.62,1.25.6,1.31-1.26.71-1.24.65-2.48,1.3c-1.64.83-3.28,1.64-4.9,2.39-3.25,1.54-6.45,2.94-9.64,4.29-6.37,2.68-12.62,5-18.82,7.15a347.34,347.34,0,0,1-36.29,10.19,357.42,357.42,0,0,1-68.67,8.35c-11.07.24-22,0-32.75-.7s-21.38-1.88-31.84-3.51a384.13,384.13,0,0,1-61.19-14.66,389,389,0,0,1-58.07-24.24,370.84,370.84,0,0,1-54.7-34.62,358.54,358.54,0,0,1-50.66-47,351.42,351.42,0,0,1-23.4-29.46c-3.75-5.36-7.45-10.9-11-16.78-1.79-2.95-3.56-5.95-5.29-9.09-.87-1.56-1.72-3.17-2.56-4.79l-1.25-2.5-.62-1.25Z"/><path class="cls-5" d="M1254.25,1718.8l1.43.18,1.39.2,2.76.42c1.81.3,3.6.61,5.35,1,3.53.67,6.93,1.43,10.3,2.21,6.7,1.59,13.12,3.39,19.38,5.3a353.19,353.19,0,0,1,35.28,13.12,359.45,359.45,0,0,1,60.43,33.6,370.74,370.74,0,0,1,49.86,41.26,389,389,0,0,1,41,47.68,383.66,383.66,0,0,1,32.87,53.59q7.17,14.16,13.17,29.17c4,10,7.59,20.3,10.79,30.89a356,356,0,0,1,13.27,67.82,345.64,345.64,0,0,1,1.52,37.62c-.13,6.55-.42,13.21-1,20.09-.3,3.45-.64,6.92-1.11,10.48-.21,1.78-.48,3.58-.76,5.4l-.47,2.76-.23,1.38-.29,1.41-1.43-.16-1.39-.21-2.77-.4c-1.82-.3-3.62-.61-5.37-.95-3.54-.66-7-1.41-10.33-2.18-6.73-1.58-13.15-3.37-19.43-5.27a347.86,347.86,0,0,1-35.35-13.06,356.82,356.82,0,0,1-60.47-33.57q-13.65-9.47-26.09-19.79t-23.69-21.53a383.07,383.07,0,0,1-40.88-47.79,388,388,0,0,1-32.71-53.71,370.29,370.29,0,0,1-23.89-60.11,359.06,359.06,0,0,1-13.31-67.79,349.55,349.55,0,0,1-1.59-37.57c.12-6.54.39-13.19,1-20,.29-3.44.62-6.91,1.07-10.46.21-1.77.47-3.57.74-5.38l.46-2.76.24-1.38Z"/><ellipse class="cls-6" cx="1547.45" cy="2119.7" rx="281.54" ry="281.22"/><ellipse class="cls-7" cx="1547.45" cy="2119.7" rx="281.54" ry="281.22"/><path class="cls-8" d="M2583.31,2460.09c13.34-45.84,22.43-93,23.85-139.26.29-9.5.42-19.48-.95-29.07a359.88,359.88,0,0,0,13.55,44.26c10,27.19,22.88,53.28,43.15,74.33,8.78,9.12,17.4,18.6,23.4,29.83,7.47,14,8.53,29.33,5.09,44.71-2.35,10.45-8.35,17.47-16.13,24.47-21.25,19.1-57.14,20.57-77.29-1.24-10.84-11.74-15-28-16-43.53Z"/><path class="cls-9" d="M2604.59,2353.42a120.66,120.66,0,0,1-.47-29.35c.63-4.83,1.9-9.69,2.09-14.55.43-7.3-1.31-14.5-3.45-21.38l-1-3.38c-1.09-3.65-2.77-6.42-3.81-10.46a33.9,33.9,0,0,1-.77-7.92c0-9.89.12-20.49,4.84-29.47l.68.19a118.21,118.21,0,0,0,.65,14.48c.46,4.76,1,9.68,1.29,14.45.18,2.23.07,4.52.47,6.69.53,3.13,2.1,7.09,2.68,10.56,1.6,8.65.12,17.58.72,26.23.22,4.92,1.22,9.85,1.49,14.79a75.06,75.06,0,0,1-1,14.74,70.16,70.16,0,0,1-3.65,14.46l-.7-.08Z"/></g></g></svg>